name rise42.5664peak47.7979fall81.9185.mot
datacolumns 19
datarows 15
range 18.63992700000000 18.66326300000000
endheader
time	ground_force1_vx	ground_force1_vy	ground_force1_vz	ground_force1_px	ground_force1_py	ground_force1_pz	ground_force2_vx	ground_force2_vy	ground_force2_vz	ground_force2_px	ground_force2_py	ground_force2_pz	ground_torque1_x	ground_torque1_y	ground_torque1_z	ground_torque2_x	ground_torque2_y	ground_torque2_z	
18.63992700000000	-2.18727400000000	728.83059200000002	37.42467200000000	0.19252500000000	0.00000000000000	0.10593200000000	0.00000000000000	0.00000000000000	0.00000000000000	0.00000000000000	0.00000000000000	0.00000000000000	0.00000000000000	14.39733300000000	0.00000000000000	0.00000000000000	0.00000000000000	0.00000000000000	
18.64159500000000	-2.71699600000000	729.83370800000000	37.48224900000000	0.19155000000000	0.00000000000000	0.10594600000000	0.00000000000000	0.00000000000000	0.00000000000000	0.00000000000000	0.00000000000000	0.00000000000000	0.00000000000000	14.50773400000000	0.00000000000000	0.00000000000000	0.00000000000000	0.00000000000000	
18.64326100000000	-3.25200100000000	730.83883900000001	37.54012900000000	0.19057000000000	0.00000000000000	0.10595900000000	0.00000000000000	0.00000000000000	0.00000000000000	0.00000000000000	0.00000000000000	0.00000000000000	0.00000000000000	14.62012200000000	0.00000000000000	0.00000000000000	0.00000000000000	0.00000000000000	
18.64494000000000	-3.79207800000000	731.84591200000000	37.59822000000000	0.18958500000000	0.00000000000000	0.10597300000000	0.00000000000000	0.00000000000000	0.00000000000000	0.00000000000000	0.00000000000000	0.00000000000000	0.00000000000000	14.73440400000000	0.00000000000000	0.00000000000000	0.00000000000000	0.00000000000000	
18.64660400000000	-4.33699800000000	732.85492899999997	37.65644200000000	0.18859600000000	0.00000000000000	0.10598700000000	0.00000000000000	0.00000000000000	0.00000000000000	0.00000000000000	0.00000000000000	0.00000000000000	0.00000000000000	14.85048700000000	0.00000000000000	0.00000000000000	0.00000000000000	0.00000000000000	
18.64825700000000	-4.88650600000000	733.86596399999996	37.71472600000000	0.18760500000000	0.00000000000000	0.10600100000000	0.00000000000000	0.00000000000000	0.00000000000000	0.00000000000000	0.00000000000000	0.00000000000000	0.00000000000000	14.96827700000000	0.00000000000000	0.00000000000000	0.00000000000000	0.00000000000000	
18.64993100000000	-5.44032800000000	734.87915999999996	37.77301400000000	0.18661200000000	0.00000000000000	0.10601500000000	0.00000000000000	0.00000000000000	0.00000000000000	0.00000000000000	0.00000000000000	0.00000000000000	0.00000000000000	15.08767300000000	0.00000000000000	0.00000000000000	0.00000000000000	0.00000000000000	
18.65159200000000	-5.99817300000000	735.89472599999999	37.83126100000000	0.18561700000000	0.00000000000000	0.10602800000000	0.00000000000000	0.00000000000000	0.00000000000000	0.00000000000000	0.00000000000000	0.00000000000000	0.00000000000000	15.20857500000000	0.00000000000000	0.00000000000000	0.00000000000000	0.00000000000000	
18.65326100000000	-6.55972700000000	736.91293299999995	37.88943400000000	0.18462200000000	0.00000000000000	0.10604100000000	0.00000000000000	0.00000000000000	0.00000000000000	0.00000000000000	0.00000000000000	0.00000000000000	0.00000000000000	15.33087900000000	0.00000000000000	0.00000000000000	0.00000000000000	0.00000000000000	
18.65493300000000	-7.12466100000000	737.93411200000003	37.94751600000000	0.18362800000000	0.00000000000000	0.10605400000000	0.00000000000000	0.00000000000000	0.00000000000000	0.00000000000000	0.00000000000000	0.00000000000000	0.00000000000000	15.45448000000000	0.00000000000000	0.00000000000000	0.00000000000000	0.00000000000000	
18.65659200000000	-7.69262800000000	738.95864600000004	38.00549900000000	0.18263500000000	0.00000000000000	0.10606600000000	0.00000000000000	0.00000000000000	0.00000000000000	0.00000000000000	0.00000000000000	0.00000000000000	0.00000000000000	15.57926800000000	0.00000000000000	0.00000000000000	0.00000000000000	0.00000000000000	
18.65826600000000	-8.26326600000000	739.98697000000004	38.06339300000000	0.18164400000000	0.00000000000000	0.10607800000000	0.00000000000000	0.00000000000000	0.00000000000000	0.00000000000000	0.00000000000000	0.00000000000000	0.00000000000000	15.70513300000000	0.00000000000000	0.00000000000000	0.00000000000000	0.00000000000000	
18.65992400000000	-8.83619900000000	741.01956399999995	38.12122000000000	0.18065700000000	0.00000000000000	0.10608900000000	0.00000000000000	0.00000000000000	0.00000000000000	0.00000000000000	0.00000000000000	0.00000000000000	0.00000000000000	15.83196100000000	0.00000000000000	0.00000000000000	0.00000000000000	0.00000000000000	
18.66159300000000	-9.41103600000000	742.05694900000003	38.17901900000000	0.17967300000000	0.00000000000000	0.10609900000000	0.00000000000000	0.00000000000000	0.00000000000000	0.00000000000000	0.00000000000000	0.00000000000000	0.00000000000000	15.95963600000000	0.00000000000000	0.00000000000000	0.00000000000000	0.00000000000000	
18.66326300000000	-9.98737700000000	743.09968100000003	38.23684200000000	0.17869400000000	0.00000000000000	0.10610900000000	0.00000000000000	0.00000000000000	0.00000000000000	0.00000000000000	0.00000000000000	0.00000000000000	0.00000000000000	16.08804100000000	0.00000000000000	0.00000000000000	0.00000000000000	0.00000000000000	
